<svg width="262" height="60" viewBox="0 0 262 60" fill="none" xmlns="http://www.w3.org/2000/svg">
<rect y="1" width="262" height="51.2692" rx="15" fill="#89D77C"/>
<path d="M54.6546 18.855C54.6546 20.535 54.0596 21.8883 52.8696 22.915C51.6796 23.9417 50.1629 24.5833 48.3196 24.84V24.945C50.6062 25.1783 52.3562 25.82 53.5696 26.87C54.8062 27.8967 55.4246 29.2383 55.4246 30.895C55.4246 32.3417 55.0279 33.6367 54.2346 34.78C53.4412 35.9 52.2629 36.775 50.6996 37.405C49.1362 38.035 47.1996 38.35 44.8896 38.35C42.9996 38.35 41.3196 38.2333 39.8496 38C38.4029 37.7667 37.1429 37.4283 36.0696 36.985V32.54C36.7929 32.89 37.6096 33.1933 38.5196 33.45C39.4296 33.6833 40.3512 33.87 41.2846 34.01C42.2179 34.1267 43.0812 34.185 43.8746 34.185C46.0912 34.185 47.6896 33.87 48.6696 33.24C49.6729 32.5867 50.1746 31.6767 50.1746 30.51C50.1746 29.32 49.4512 28.4567 48.0046 27.92C46.5579 27.36 44.6096 27.08 42.1596 27.08H39.8146V22.95H41.9146C43.8979 22.95 45.4379 22.8217 46.5346 22.565C47.6312 22.3083 48.4012 21.935 48.8446 21.445C49.2879 20.955 49.5096 20.3717 49.5096 19.695C49.5096 18.8317 49.1246 18.155 48.3546 17.665C47.6079 17.1517 46.4762 16.895 44.9596 16.895C43.6762 16.895 42.4629 17.0817 41.3196 17.455C40.1996 17.8283 39.1496 18.3183 38.1696 18.925L35.8596 15.39C36.7229 14.83 37.6329 14.3517 38.5896 13.955C39.5696 13.535 40.6429 13.22 41.8096 13.01C42.9762 12.7767 44.2712 12.66 45.6946 12.66C47.5846 12.66 49.1946 12.9283 50.5246 13.465C51.8546 14.0017 52.8696 14.7367 53.5696 15.67C54.2929 16.58 54.6546 17.6417 54.6546 18.855ZM71.0149 18.505C73.5816 18.505 75.5416 19.065 76.8949 20.185C78.2716 21.2817 78.9599 22.9733 78.9599 25.26V38H75.3199L74.3049 35.41H74.1649C73.6282 36.0867 73.0682 36.6467 72.4849 37.09C71.9249 37.5333 71.2716 37.8483 70.5249 38.035C69.8016 38.245 68.9032 38.35 67.8299 38.35C66.7099 38.35 65.6949 38.14 64.7849 37.72C63.8982 37.2767 63.1982 36.6117 62.6849 35.725C62.1716 34.815 61.9149 33.6717 61.9149 32.295C61.9149 30.265 62.6266 28.7717 64.0499 27.815C65.4732 26.835 67.6082 26.2983 70.4549 26.205L73.7799 26.1V25.26C73.7799 24.2567 73.5116 23.5217 72.9749 23.055C72.4616 22.5883 71.7382 22.355 70.8049 22.355C69.8716 22.355 68.9616 22.495 68.0749 22.775C67.1882 23.0317 66.3016 23.3583 65.4149 23.755L63.6999 20.22C64.7266 19.6833 65.8582 19.2633 67.0949 18.96C68.3549 18.6567 69.6616 18.505 71.0149 18.505ZM71.7499 29.215C70.0699 29.2617 68.9032 29.565 68.2499 30.125C67.5966 30.685 67.2699 31.42 67.2699 32.33C67.2699 33.1233 67.5032 33.695 67.9699 34.045C68.4366 34.3717 69.0432 34.535 69.7899 34.535C70.9099 34.535 71.8549 34.2083 72.6249 33.555C73.3949 32.8783 73.7799 31.9333 73.7799 30.72V29.145L71.7499 29.215ZM100.328 18.89H106.068L98.5079 28.06L106.733 38H100.818L93.0129 28.305V38H87.7979V18.89H93.0129V28.165L100.328 18.89ZM120.808 18.505C123.375 18.505 125.335 19.065 126.688 20.185C128.065 21.2817 128.753 22.9733 128.753 25.26V38H125.113L124.098 35.41H123.958C123.421 36.0867 122.861 36.6467 122.278 37.09C121.718 37.5333 121.065 37.8483 120.318 38.035C119.595 38.245 118.696 38.35 117.623 38.35C116.503 38.35 115.488 38.14 114.578 37.72C113.691 37.2767 112.991 36.6117 112.478 35.725C111.965 34.815 111.708 33.6717 111.708 32.295C111.708 30.265 112.42 28.7717 113.843 27.815C115.266 26.835 117.401 26.2983 120.248 26.205L123.573 26.1V25.26C123.573 24.2567 123.305 23.5217 122.768 23.055C122.255 22.5883 121.531 22.355 120.598 22.355C119.665 22.355 118.755 22.495 117.868 22.775C116.981 23.0317 116.095 23.3583 115.208 23.755L113.493 20.22C114.52 19.6833 115.651 19.2633 116.888 18.96C118.148 18.6567 119.455 18.505 120.808 18.505ZM121.543 29.215C119.863 29.2617 118.696 29.565 118.043 30.125C117.39 30.685 117.063 31.42 117.063 32.33C117.063 33.1233 117.296 33.695 117.763 34.045C118.23 34.3717 118.836 34.535 119.583 34.535C120.703 34.535 121.648 34.2083 122.418 33.555C123.188 32.8783 123.573 31.9333 123.573 30.72V29.145L121.543 29.215ZM144.556 18.54C145.933 18.54 147.216 18.7267 148.406 19.1C149.619 19.45 150.588 19.9983 151.311 20.745C152.058 21.4917 152.431 22.4483 152.431 23.615C152.431 24.7583 152.081 25.6683 151.381 26.345C150.704 27.0217 149.783 27.5117 148.616 27.815V27.99C149.433 28.1767 150.168 28.445 150.821 28.795C151.474 29.1217 151.988 29.5767 152.361 30.16C152.758 30.72 152.956 31.4783 152.956 32.435C152.956 33.485 152.618 34.465 151.941 35.375C151.288 36.2617 150.261 36.985 148.861 37.545C147.484 38.0817 145.711 38.35 143.541 38.35C142.514 38.35 141.546 38.3033 140.636 38.21C139.726 38.1167 138.898 37.9883 138.151 37.825C137.404 37.6383 136.751 37.4167 136.191 37.16V32.855C136.984 33.2283 137.953 33.5667 139.096 33.87C140.263 34.1733 141.499 34.325 142.806 34.325C143.763 34.325 144.614 34.255 145.361 34.115C146.131 33.975 146.738 33.7417 147.181 33.415C147.648 33.0883 147.881 32.6567 147.881 32.12C147.881 31.6067 147.683 31.1867 147.286 30.86C146.889 30.51 146.294 30.2533 145.501 30.09C144.708 29.9267 143.693 29.845 142.456 29.845H140.426V26.24H142.351C144.078 26.24 145.408 26.1 146.341 25.82C147.298 25.54 147.776 25.015 147.776 24.245C147.776 23.6383 147.473 23.1833 146.866 22.88C146.259 22.5533 145.268 22.39 143.891 22.39C142.981 22.39 141.989 22.495 140.916 22.705C139.843 22.915 138.828 23.2183 137.871 23.615L136.331 19.975C137.428 19.555 138.629 19.2167 139.936 18.96C141.243 18.68 142.783 18.54 144.556 18.54ZM168.345 18.505C170.912 18.505 172.872 19.065 174.225 20.185C175.602 21.2817 176.29 22.9733 176.29 25.26V38H172.65L171.635 35.41H171.495C170.958 36.0867 170.398 36.6467 169.815 37.09C169.255 37.5333 168.602 37.8483 167.855 38.035C167.132 38.245 166.233 38.35 165.16 38.35C164.04 38.35 163.025 38.14 162.115 37.72C161.228 37.2767 160.528 36.6117 160.015 35.725C159.502 34.815 159.245 33.6717 159.245 32.295C159.245 30.265 159.957 28.7717 161.38 27.815C162.803 26.835 164.938 26.2983 167.785 26.205L171.11 26.1V25.26C171.11 24.2567 170.842 23.5217 170.305 23.055C169.792 22.5883 169.068 22.355 168.135 22.355C167.202 22.355 166.292 22.495 165.405 22.775C164.518 23.0317 163.632 23.3583 162.745 23.755L161.03 20.22C162.057 19.6833 163.188 19.2633 164.425 18.96C165.685 18.6567 166.992 18.505 168.345 18.505ZM169.08 29.215C167.4 29.2617 166.233 29.565 165.58 30.125C164.927 30.685 164.6 31.42 164.6 32.33C164.6 33.1233 164.833 33.695 165.3 34.045C165.767 34.3717 166.373 34.535 167.12 34.535C168.24 34.535 169.185 34.2083 169.955 33.555C170.725 32.8783 171.11 31.9333 171.11 30.72V29.145L169.08 29.215ZM200.948 22.81H194.683V38H189.468V22.81H183.203V18.89H200.948V22.81ZM216.864 26.275C218.824 26.275 220.445 26.485 221.729 26.905C223.012 27.3017 223.957 27.92 224.564 28.76C225.194 29.6 225.509 30.65 225.509 31.91C225.509 33.1467 225.217 34.22 224.634 35.13C224.074 36.04 223.175 36.7517 221.939 37.265C220.702 37.755 219.08 38 217.074 38H207.974V18.89H213.189V26.275H216.864ZM220.294 31.98C220.294 31.2333 219.99 30.6967 219.384 30.37C218.8 30.0433 217.925 29.88 216.759 29.88H213.189V34.395H216.829C217.855 34.395 218.684 34.2083 219.314 33.835C219.967 33.4617 220.294 32.8433 220.294 31.98Z" fill="white"/>
</svg>
