<svg width="92" height="80" viewBox="0 0 92 80" fill="none" xmlns="http://www.w3.org/2000/svg">
<g filter="url(#filter0_d_230_1874)">
<rect x="88" width="71.5414" height="25" rx="3" transform="rotate(90 88 0)" fill="#E76F3D"/>
<rect x="88" width="5.96178" height="25" rx="2.98089" transform="rotate(90 88 0)" fill="#F4885B"/>
<rect x="88" y="66.0382" width="5.96178" height="25" rx="2.98089" transform="rotate(90 88 66.0382)" fill="#F4885B"/>
<rect x="88" width="71.5414" height="7.5" rx="3.75" transform="rotate(90 88 0)" fill="#FF7941"/>
</g>
<g filter="url(#filter1_d_230_1874)">
<rect x="4" y="72" width="71.5414" height="25" rx="3" transform="rotate(-90 4 72)" fill="#E76F3D"/>
<rect x="4" y="72" width="5.96178" height="25" rx="2.98089" transform="rotate(-90 4 72)" fill="#F4885B"/>
<rect x="4" y="5.96179" width="5.96178" height="25" rx="2.98089" transform="rotate(-90 4 5.96179)" fill="#F4885B"/>
<rect x="4" y="72" width="71.5414" height="7.5" rx="3.75" transform="rotate(-90 4 72)" fill="#FF7941"/>
</g>
<rect x="30" y="68" width="63" height="32" rx="4" transform="rotate(-90 30 68)" fill="#333333" fill-opacity="0.7"/>
<rect x="31" y="66" width="60" height="30" rx="2" transform="rotate(-90 31 66)" fill="white"/>
<defs>
<filter id="filter0_d_230_1874" x="59" y="0" width="33" height="80" filterUnits="userSpaceOnUse" color-interpolation-filters="sRGB">
<feFlood flood-opacity="0" result="BackgroundImageFix"/>
<feColorMatrix in="SourceAlpha" type="matrix" values="0 0 0 0 0 0 0 0 0 0 0 0 0 0 0 0 0 0 127 0" result="hardAlpha"/>
<feOffset dy="4"/>
<feGaussianBlur stdDeviation="2"/>
<feComposite in2="hardAlpha" operator="out"/>
<feColorMatrix type="matrix" values="0 0 0 0 0 0 0 0 0 0 0 0 0 0 0 0 0 0 0.25 0"/>
<feBlend mode="normal" in2="BackgroundImageFix" result="effect1_dropShadow_230_1874"/>
<feBlend mode="normal" in="SourceGraphic" in2="effect1_dropShadow_230_1874" result="shape"/>
</filter>
<filter id="filter1_d_230_1874" x="0" y="0" width="33" height="80" filterUnits="userSpaceOnUse" color-interpolation-filters="sRGB">
<feFlood flood-opacity="0" result="BackgroundImageFix"/>
<feColorMatrix in="SourceAlpha" type="matrix" values="0 0 0 0 0 0 0 0 0 0 0 0 0 0 0 0 0 0 127 0" result="hardAlpha"/>
<feOffset dy="4"/>
<feGaussianBlur stdDeviation="2"/>
<feComposite in2="hardAlpha" operator="out"/>
<feColorMatrix type="matrix" values="0 0 0 0 0 0 0 0 0 0 0 0 0 0 0 0 0 0 0.25 0"/>
<feBlend mode="normal" in2="BackgroundImageFix" result="effect1_dropShadow_230_1874"/>
<feBlend mode="normal" in="SourceGraphic" in2="effect1_dropShadow_230_1874" result="shape"/>
</filter>
</defs>
</svg>
