<svg width="86" height="92" viewBox="0 0 86 92" fill="none" xmlns="http://www.w3.org/2000/svg">
<path d="M76.0076 65.037C80.6939 69.7233 80.6939 77.3213 76.0076 82.0076C71.3213 86.6939 63.7233 86.6938 59.037 82.0076L54.7011 77.6717C52.3408 75.3114 52.3408 71.4845 54.7011 69.1242L63.1242 60.7011C65.4845 58.3408 69.3114 58.3408 71.6717 60.7011L76.0076 65.037Z" fill="#88B9C9"/>
<path d="M64.8492 58.1213L75.314 64.7514L79.3449 72.617L78.2224 77.0802C77.3071 80.7195 74.4313 83.54 70.775 84.3845L66.617 85.3449L58.8249 81.2406L52.1213 70.8492" stroke="#9BCFE0" stroke-width="4"/>
<path d="M26.3286 81.0078C21.6454 85.6971 14.0474 85.702 9.35807 81.0188C4.66874 76.3355 4.66381 68.7375 9.34707 64.0482L13.6801 59.7095C16.0389 57.3477 19.8657 57.3452 22.2276 59.704L30.6562 68.1216C33.018 70.4804 33.0205 74.3072 30.6617 76.6691L26.3286 81.0078Z" fill="#88B9C9"/>
<path d="M33.2389 69.855L26.6088 80.3198L18.7432 84.3507L14.2801 83.2282C10.6408 82.3129 7.82024 79.4371 6.9757 75.7807L6.01532 71.6228L10.1196 63.8306L20.511 57.1271" stroke="#9BCFE0" stroke-width="4"/>
<path d="M31 14.2198C31 7.59235 36.3726 2.21977 43 2.21977C49.6274 2.21977 55 7.59236 55 14.2198L55 20.3516C55 23.6896 52.294 26.3956 48.956 26.3956L37.044 26.3956C33.706 26.3956 31 23.6896 31 20.3516L31 14.2198Z" fill="#88B9C9"/>
<path d="M34 27L31.2885 14.9121L34 6.5L37.9497 4.1378C41.1703 2.21164 45.1982 2.25071 48.3808 4.23899L52 6.5L54.6077 14.9121L52 27" stroke="#9BCFE0" stroke-width="4"/>
<circle cx="43" cy="49" r="20" fill="white"/>
</svg>
